<svg width="44" height="44" viewBox="0 0 44 44" fill="none" xmlns="http://www.w3.org/2000/svg">
<g id="linkedin">
<path id="Ellipse 5" d="M42.6149 22.1575C42.6149 33.5917 33.3556 42.86 21.9349 42.86C10.5141 42.86 1.25488 33.5917 1.25488 22.1575C1.25488 10.7233 10.5141 1.45499 21.9349 1.45499C33.3556 1.45499 42.6149 10.7233 42.6149 22.1575Z" fill="#ED905C" stroke="black"/>
<g id="Vector">
<path d="M28.0618 16.8215C27.1643 16.8215 26.4998 17.0478 25.9795 17.3338C25.8962 17.0372 25.6221 16.8201 25.2991 16.885H21.3491C20.9586 16.8201 20.6422 17.1365 20.7627 17.5469V32.1081C20.6422 32.4788 20.9586 32.7965 21.3491 32.77H25.2991C25.6896 32.7965 26.006 32.4788 26.006 32.0883L26.0047 23.288C26.0034 23.284 25.9888 22.8631 26.2549 22.5732C26.468 22.3428 26.8347 22.225 27.3417 22.225C28.1862 22.225 28.5622 22.5705 28.7025 23.3436V32.0883C28.5635 32.4788 28.8799 32.7965 29.2704 32.77H33.4336C33.8241 32.7965 34.1405 32.4788 34.0001 32.0883V23.0497C34.1391 18.4536 30.8655 16.8215 28.0618 16.8215ZM32.7254 31.4463H29.9773V23.3436C29.9773 21.7802 28.9673 20.8112 27.343 20.8112C26.4243 20.8112 25.7095 21.0813 25.2171 21.6134C24.5327 22.3547 24.5856 23.2946 24.7326 23.5038V31.4463H22.056V18.2352H24.5923V18.68C24.5912 18.8125 24.6276 18.9426 24.6972 19.0554C24.7668 19.1681 24.8668 19.259 24.9857 19.3174C25.1045 19.3759 25.2375 19.3997 25.3693 19.386C25.5011 19.3723 25.6264 19.3217 25.7307 19.24L25.916 19.097L25.9185 19.095C26.4538 18.6734 27.0084 18.2365 28.0631 18.2365C29.1566 18.2365 32.7267 18.5847 32.7267 23.051V31.4463H32.7254Z" fill="black"/>
<path d="M32.7254 31.4463H29.9773V23.3436C29.9773 21.7802 28.9673 20.8112 27.343 20.8112C26.4243 20.8112 25.7095 21.0813 25.2171 21.6134C24.5327 22.3547 24.5856 23.2946 24.7326 23.5038V31.4463H22.056V18.2352H24.5923V18.68C24.5912 18.8125 24.6276 18.9426 24.6972 19.0554C24.7668 19.1681 24.8668 19.259 24.9857 19.3174C25.1045 19.3759 25.2375 19.3997 25.3693 19.386C25.5011 19.3723 25.6264 19.3217 25.7307 19.24L25.916 19.097L25.9185 19.095C26.4538 18.6734 27.0084 18.2365 28.0631 18.2365C29.1566 18.2365 32.7267 18.5847 32.7267 23.051V31.4463H32.7254Z" fill="black"/>
</g>
<g id="Vector_2">
<path d="M15.3431 9.03489C13.8579 9.03489 12.6506 10.2422 12.6506 11.7274C12.6506 13.2126 13.8579 14.4199 15.3431 14.4199C16.8284 14.4199 18.0357 13.2126 18.0357 11.7274C18.0357 10.2422 16.8284 9.03489 15.3431 9.03489ZM15.3431 13.0061C14.6389 13.0061 14.0644 12.4316 14.0644 11.7274C14.0644 11.0232 14.6389 10.4487 15.3431 10.4487C16.0474 10.4487 16.6219 11.0232 16.6219 11.7274C16.6219 12.4316 16.0474 13.0061 15.3431 13.0061Z" fill="black"/>
<path d="M15.3431 13.0061C14.6389 13.0061 14.0644 12.4316 14.0644 11.7274C14.0644 11.0232 14.6389 10.4487 15.3431 10.4487C16.0474 10.4487 16.6219 11.0232 16.6219 11.7274C16.6219 12.4316 16.0474 13.0061 15.3431 13.0061Z" fill="black"/>
</g>
<g id="Vector_3">
<path d="M17.2064 16.8201H13.2775C12.887 16.8201 12.5707 17.1365 12.6686 17.5469V32.1081C12.5707 32.4788 12.887 32.7965 13.2775 32.77H17.2064C17.5969 32.7965 17.9133 32.4788 17.9133 32.0883V17.527C17.9133 17.3395 17.8388 17.1597 17.7063 17.0272C17.5737 16.8946 17.3939 16.8201 17.2064 16.8201ZM16.6399 31.4463H13.9844V18.2352H16.6399V31.4463Z" fill="black"/>
<path d="M16.6399 31.4463H13.9844V18.2352H16.6399V31.4463Z" fill="black"/>
</g>
</g>
</svg>
