<svg preserveAspectRatio="xMidYMid meet" width="72" height="69" viewBox="0 0 72 69" fill="none" xmlns="http://www.w3.org/2000/svg">
<path d="M20.5025 67.2977C13.6101 63.9246 8.0032 58.3855 4.5477 51.5187C0.979266 44.4274 -0.0848961 36.3374 1.5283 28.5645C3.1415 20.7916 7.33715 13.7933 13.4328 8.70771C19.5284 3.62214 27.1654 0.748618 35.1016 0.554525C43.0377 0.360433 50.806 2.8572 57.143 7.6387C63.4799 12.4202 68.0127 19.2051 70.0039 26.8898C71.9952 34.5745 71.3277 42.7069 68.1102 49.9641C65.0038 56.9709 59.7098 63.4551 53.0631 67.2076C53.0669 67.0998 53.0705 66.984 53.0733 66.8608C53.0913 66.0944 53.0856 65.0397 52.9903 63.8888C52.8951 62.7397 52.7095 61.482 52.3629 60.3142C52.0177 59.1514 51.5022 58.0415 50.7239 57.2226C49.961 56.4198 48.7826 55.681 47.4888 55.028C46.1854 54.3701 44.7231 53.7788 43.3585 53.2838C41.9925 52.7884 40.7163 52.3865 39.7819 52.1086C39.6255 52.0621 39.4786 52.019 39.3424 51.9795C39.8747 51.6002 40.4609 51.1247 41.069 50.5911C42.0927 49.6927 43.2049 48.6058 44.2676 47.4773C45.3303 46.3489 46.3485 45.1736 47.1829 44.0976C48.0107 43.0299 48.6798 42.0316 49.0208 41.2626L49.2287 40.7937L48.7546 40.5978C48.6199 40.5422 48.5497 40.468 48.5059 40.377C48.456 40.2733 48.423 40.1093 48.442 39.8586C48.4807 39.3473 48.7219 38.6317 49.153 37.7377C50.0081 35.9641 51.5056 33.6944 53.1241 31.3461C53.5584 30.716 54.0012 30.0805 54.4411 29.449C55.6297 27.7432 56.7979 26.0666 57.7221 24.6055C58.3555 23.6039 58.8868 22.6846 59.236 21.9112C59.4105 21.5246 59.5459 21.1606 59.6238 20.8318C59.6999 20.5105 59.7324 20.1775 59.6542 19.8757C59.581 19.5932 59.4326 19.3499 59.1997 19.1768C58.9733 19.0086 58.7071 18.9362 58.4446 18.9167C57.9367 18.8788 57.3251 19.0306 56.6918 19.2586C55.4091 19.7204 53.7666 20.5995 52.1191 21.4869L51.9674 21.5686C50.3488 22.4405 48.7227 23.3165 47.344 23.8751C46.6326 24.1633 46.0153 24.355 45.5178 24.4237C45.0069 24.4943 44.7179 24.4223 44.5657 24.3075C41.9915 22.3651 38.8359 21.3509 35.6121 21.4298C32.3883 21.5086 29.286 22.6759 26.8099 24.7417C26.6616 24.8655 26.363 24.9563 25.823 24.9197C25.2995 24.8842 24.6431 24.7353 23.8836 24.499C22.4348 24.0482 20.7117 23.3127 18.9916 22.5785C18.9091 22.5433 18.8266 22.5081 18.7442 22.4729C16.9633 21.7132 15.1892 20.9646 13.8177 20.6033C13.1394 20.4246 12.4966 20.3224 11.9774 20.3965C11.7108 20.4346 11.4452 20.5233 11.2249 20.7015C10.9969 20.8861 10.8545 21.1369 10.794 21.4284C10.7283 21.745 10.7911 22.0851 10.8976 22.4039C11.0072 22.7316 11.1818 23.0913 11.3999 23.4712C11.8364 24.2315 12.4811 25.1306 13.2406 26.107C14.2791 27.442 15.5615 28.9581 16.8697 30.5046C17.4732 31.218 18.0822 31.9379 18.6752 32.6495C20.5692 34.9221 22.297 37.1059 23.2508 38.799C23.7343 39.6571 23.9764 40.3178 23.9923 40.7672C23.9997 40.9789 23.9556 41.1077 23.8973 41.1905C23.8403 41.2715 23.732 41.3622 23.5078 41.4273L22.9303 41.5951L23.2006 42.1322C23.9406 43.6027 25.9038 45.8885 27.9922 47.9416C29.0452 48.9769 30.1459 49.9684 31.1652 50.7861C31.7595 51.2629 32.335 51.6878 32.8632 52.0288C32.8019 52.0493 32.7384 52.0706 32.673 52.0927C31.8849 52.3595 30.8063 52.748 29.6453 53.2354C28.4857 53.7222 27.2359 54.3108 26.1086 54.9791C24.9876 55.6435 23.9564 56.4048 23.2616 57.2468C21.8848 58.9152 21.2026 61.6664 20.8539 63.9087C20.677 65.0461 20.5818 66.0834 20.5307 66.8361C20.5192 67.0048 20.51 67.1593 20.5025 67.2977Z" fill="#ED905C" stroke="black"/>
</svg>
